<svg width="60" height="60" viewBox="0 0 60 60" fill="none" xmlns="http://www.w3.org/2000/svg">
<path fill-rule="evenodd" clip-rule="evenodd" d="M60 30C60 46.5685 46.5685 60 30 60C13.4315 60 0 46.5685 0 30C0 13.4315 13.4315 0 30 0C46.5685 0 60 13.4315 60 30Z" fill="white"/>
<path fill-rule="evenodd" clip-rule="evenodd" d="M29.9994 12C20.0754 12 12 20.0741 12 29.9994C12 39.9246 20.0754 47.9987 29.9994 47.9987C39.9246 47.9987 48 39.9259 48 29.9994C48 20.0741 39.9246 12 29.9994 12ZM46.4436 29.9993C46.4436 30.3143 46.4157 30.6218 46.3966 30.9331C46.281 30.6409 46.1057 30.2597 46.0638 30.0958C46.0028 29.8468 45.6305 28.979 45.6305 28.979C45.6305 28.979 45.2583 28.4835 45.0105 28.359C44.764 28.2345 44.5773 27.9245 44.1427 27.678C43.7082 27.429 43.524 27.3058 43.153 27.3058C42.7795 27.3058 42.4098 26.809 41.974 26.5612C41.5395 26.3148 41.4785 26.438 41.4785 26.438C41.4785 26.438 41.974 27.1813 41.974 27.3668C41.974 27.5522 42.5305 27.8623 43.0908 27.7377C43.0908 27.7377 43.4618 28.42 43.6472 28.6055C43.8327 28.791 43.585 28.9778 43.214 29.2255C42.8417 29.472 42.904 29.411 42.716 29.5965C42.5305 29.782 41.9117 30.0945 41.725 30.2165C41.5395 30.3398 40.7962 30.712 40.4252 30.3398C40.2435 30.1606 40.2994 29.7833 40.1775 29.5342C40.053 29.2865 38.752 27.3655 38.1319 26.499C38.024 26.3465 37.7597 25.8764 37.5755 25.7557C37.39 25.63 38.01 25.63 38.01 25.63C38.01 25.63 38.01 25.1954 37.9477 24.8867C37.8842 24.5767 38.01 24.1435 38.01 24.1435C38.01 24.1435 37.39 24.5144 37.2019 24.639C37.0177 24.7635 36.8309 24.3925 36.5845 24.0812C36.3367 23.7725 36.0877 23.3989 36.0267 23.0889C35.9644 22.7802 36.3367 22.6557 36.3367 22.6557L36.8932 22.347C36.8932 22.347 37.5755 22.2237 38.01 22.2847C38.4432 22.347 39.1242 22.4092 39.1242 22.4092C39.1242 22.4092 39.3097 21.9747 39.062 21.7892C38.8155 21.6037 38.2552 21.2937 38.0074 21.356C37.761 21.4169 38.1307 21.0459 38.4394 20.7982L37.7533 20.6737C37.7533 20.6737 37.1295 20.9837 36.9427 21.0459C36.7572 21.1069 36.4345 21.2314 36.1855 21.5414C35.939 21.8515 36.2846 22.2847 36.0369 22.4092C35.7904 22.5337 35.6227 22.5947 35.4359 22.6557C35.2504 22.7179 34.6609 22.6557 34.6609 22.6557C34.0206 22.6557 34.4309 23.2401 34.5974 23.4472L34.1019 22.8425L33.7347 21.976C33.7347 21.976 33.2062 21.605 32.9584 21.4817C32.7107 21.3572 31.9471 20.924 31.9471 20.924L32.0004 21.4817L32.7183 22.2085L32.7818 22.225L33.1553 22.7205L32.3308 22.7827V22.2923C31.5532 22.1043 31.7565 21.9112 31.6688 21.8515C31.4846 21.7282 31.0539 21.4169 31.0539 21.4169C31.0539 21.4169 30.3246 21.5414 30.1379 21.6037C29.9511 21.666 29.899 21.8515 29.5293 21.9747C29.1558 22.0992 28.9881 22.2847 28.8648 22.4702C28.7416 22.6557 28.3376 23.2134 28.0923 23.4612C27.8433 23.7102 27.3834 23.6467 27.1979 23.6467C27.0111 23.6467 26.1167 23.3989 26.1167 23.3989V22.3482C26.1167 22.3482 26.2374 21.7587 26.1764 21.5732L26.7189 21.4817L27.6248 21.295L27.8903 21.1082L28.2715 20.6127C28.2715 20.6127 27.8433 20.3027 28.1521 19.8695C28.3007 19.6611 28.8356 19.6217 29.0833 19.4362C29.3298 19.2507 29.7046 19.1262 29.7046 19.1262C29.7046 19.1262 30.1391 18.7552 30.5724 18.3207C30.5724 18.3207 30.8824 18.1339 31.2534 18.0094C31.2534 18.0094 32.3079 18.9394 32.4947 18.9394C32.6814 18.9394 33.3624 18.5062 33.3624 18.5062C33.3624 18.5062 33.5479 17.9497 33.4869 17.7629C33.4247 17.5774 33.1147 16.9574 33.1147 16.9574C33.1147 16.9574 32.9292 17.2674 32.7437 17.5152C32.5582 17.7629 32.4337 18.0729 32.4337 18.0729C32.4337 18.0729 31.5659 18.0132 31.5049 17.8277C31.4414 17.641 31.3195 17.3348 31.2559 17.1506C31.1962 16.9638 30.6994 16.9701 30.3297 17.0947C29.9562 17.2192 30.3894 16.4264 30.3894 16.4264C30.3894 16.4264 30.763 15.9588 31.0094 15.9588C31.2559 15.9588 31.8162 15.6412 32.0614 15.5802C32.3105 15.5179 33.0562 15.2346 33.3637 15.2346C33.6737 15.2346 34.046 15.368 34.2327 15.368C34.4195 15.368 35.1615 15.368 35.1615 15.368L36.4612 15.2638C36.4612 15.2638 37.578 15.6768 37.2045 15.9258C37.2045 15.9258 37.6403 16.1939 37.8258 16.3794C37.9998 16.5547 38.4496 16.218 38.7075 16.0744C43.3436 18.9839 46.4436 24.1308 46.4436 29.9993ZM16.8775 20.3029C16.8775 20.5506 16.5395 20.6104 16.8775 21.2329C17.3095 22.0384 16.9385 22.4107 16.9385 22.4107C16.9385 22.4107 15.884 23.1539 15.6985 23.2784C15.513 23.403 15.0175 24.0839 15.3262 23.8972C15.6362 23.7117 16.0072 23.5262 15.6985 24.0217C15.3885 24.5185 14.8307 25.3227 14.7075 25.634C14.5842 25.9452 13.9642 26.6872 13.9642 27.0595C13.9642 27.4317 13.7165 28.1763 13.7787 28.4863C13.8206 28.7023 13.6834 29.3388 13.5754 29.6005C13.6593 26.1168 14.832 22.9062 16.7682 20.28C16.8318 20.2864 16.8775 20.3029 16.8775 20.3029ZM18.8683 17.927C20.3841 16.5282 22.1602 15.4126 24.1194 14.658C23.9262 14.9057 23.6925 15.1598 23.6925 15.1598C23.6925 15.1598 23.2592 15.1585 22.4525 16.0276C21.6482 16.8953 21.8337 16.6476 21.6482 16.8941C21.4627 17.1405 21.5237 17.2041 21.0892 17.5153C20.6572 17.8241 20.4704 18.1963 20.4704 18.1963L19.7882 18.4441L19.2317 18.1963C19.2317 18.1963 18.7337 18.3831 18.7959 18.1341C18.8137 18.068 18.8404 17.9994 18.8683 17.927ZM26.2958 19.3728L26.0493 19.0018L26.2958 18.4441L26.8929 18.6829V17.5763L27.4634 17.2676L27.9373 17.9486L28.6666 18.7553L28.1825 19.1263L26.8917 19.3741V18.7172L26.2958 19.3728ZM34.3534 25.198C34.4983 25.0837 34.9722 25.3835 34.9722 25.3835C34.9722 25.3835 36.5209 25.6935 36.7687 25.879C37.0177 26.0658 37.4509 26.1903 37.5755 26.3771C37.7 26.5626 38.1319 27.1203 38.1929 27.3058C38.2565 27.4913 38.5665 28.1748 38.6287 28.4213C38.691 28.6691 38.8765 29.2891 39.062 29.5991C39.2475 29.9104 40.302 31.2723 40.673 31.8924L41.791 31.7069C41.791 31.7069 41.6652 32.2633 41.542 32.4501C41.4188 32.6356 41.0465 33.1311 40.861 33.3789C40.6742 33.6266 40.4278 33.9989 40.0555 34.3076C39.6845 34.6163 39.682 34.9263 39.4977 35.1754C39.3123 35.4231 39.0632 35.9809 39.0632 35.9809C39.0632 35.9809 39.1877 37.2209 39.2487 37.4686C39.3097 37.7164 38.8155 38.3974 38.8155 38.3974L38.2565 38.9564L37.5094 39.9461L37.5704 40.8749C37.5704 40.8749 37.0063 41.3107 36.695 41.5572C36.3875 41.8036 36.4358 41.9904 36.1881 42.2394C35.9416 42.4859 34.9722 42.9204 34.7244 42.9827C34.4767 43.0449 33.1096 43.2304 33.1096 43.2304V42.6739L33.0817 42.0539C33.0817 42.0539 32.8936 41.3107 32.7069 41.0629C32.5201 40.8152 32.6014 40.4416 32.2914 40.1329C31.9814 39.8229 31.867 39.5764 31.8048 39.3884C31.7425 39.2029 31.8721 38.6464 31.8721 38.6464C31.8721 38.6464 32.1224 37.9641 32.2457 37.7164C32.3702 37.4686 32.2469 37.0977 32.1224 36.8486C31.9979 36.5996 31.9382 35.9796 31.9382 35.7954C31.9382 35.6099 31.4401 35.2986 31.2547 35.1131C31.0692 34.9276 31.1314 34.6786 31.1314 34.4334C31.1314 34.1831 30.9459 33.6266 31.0069 33.1921C31.0692 32.7588 30.4504 33.0676 30.0782 33.1921C29.7059 33.3166 29.4594 33.0676 29.4594 32.6953C29.4594 32.3231 28.7784 32.6343 28.3439 32.8808C27.9081 33.1286 27.4139 33.1286 26.9159 33.3153C26.4216 33.5008 26.1751 33.1298 26.1751 33.1298C26.1751 33.1298 25.7394 32.7588 25.4319 32.5721C25.1206 32.3866 24.8106 32.0156 24.5616 31.7056C24.3151 31.3943 23.6938 30.4643 23.6341 30.0946C23.5719 29.721 23.6341 29.472 23.6341 29.0388C23.6341 28.6055 23.6341 28.3578 23.6951 28.0478C23.7574 27.7378 23.9428 27.3655 24.1296 27.0555C24.3151 26.7455 24.9974 26.3745 25.1816 26.25C25.3671 26.1268 25.8016 25.7558 25.8016 25.5068C25.8016 25.259 26.0506 25.1358 26.1726 24.8867C26.2984 24.639 26.7316 24.0203 27.2894 24.268C27.2894 24.268 27.7836 24.207 27.9691 24.1448C28.1546 24.0825 28.6501 23.8983 28.8953 23.7738C29.1431 23.6493 29.7605 23.5908 29.7605 23.5908C29.7605 23.5908 30.2484 23.7852 30.4339 23.7852C30.6194 23.7852 31.2242 23.6772 31.2242 23.6772C31.2242 23.6772 31.5037 24.5755 31.5037 24.7622C31.5037 24.949 31.6892 25.1332 32.0004 25.2577C32.3066 25.3835 33.7334 25.6948 34.3534 25.198ZM41.4798 37.3454C41.4798 37.5309 41.4176 38.0276 41.3553 38.2754C41.2905 38.5231 41.1686 38.9576 41.1076 39.2029C41.0453 39.4519 40.7353 39.9474 40.5511 40.0719C40.3656 40.1964 40.0543 40.5687 39.8701 40.6296C39.6846 40.6919 39.5588 40.1951 39.6211 39.9474C39.6846 39.6996 39.9933 39.0186 39.9933 39.0186C39.9933 39.0186 40.0556 38.6476 40.1166 38.3986C40.1801 38.1521 40.9234 37.8421 40.9234 37.8421L41.4201 36.9121C41.4176 36.9108 41.4798 37.1611 41.4798 37.3454ZM13.9795 33.6533C14.0595 33.6736 14.1739 33.7321 14.3352 33.8757C14.569 34.0789 14.7075 34.1831 15.0175 34.3089C15.3262 34.4347 15.4507 34.6176 15.823 34.8044C16.1953 34.9912 16.072 34.8679 16.5663 35.4244C17.063 35.9809 17.0008 35.9809 17.124 36.2922C17.2473 36.6035 17.434 36.9109 17.5585 37.099C17.683 37.2844 18.054 37.4077 18.2395 37.5322C18.425 37.6567 18.735 37.7799 18.9205 37.7799C19.1073 37.7799 19.665 38.3377 19.975 38.3987C20.2851 38.4622 20.2851 39.0822 20.2851 39.0822L19.975 39.9487L19.726 40.8775L19.975 41.6207C19.975 41.6207 19.6015 41.932 19.3563 41.932C19.1276 41.932 19.0501 42.0768 18.7998 42.0082C16.4367 39.8013 14.7227 36.9147 13.9795 33.6533Z" fill="#228CC4"/>
</svg>
